<svg xmlns="http://www.w3.org/2000/svg" xmlns:xlink="http://www.w3.org/1999/xlink" width="462" height="462" viewBox="0 0 462 462"><defs><linearGradient id="a"><stop offset="0" stop-color="#1f3170"/><stop offset="1" stop-color="#131d43"/></linearGradient><linearGradient xlink:href="#a" id="b" gradientUnits="userSpaceOnUse" gradientTransform="translate(66.922 -381.417) scale(5.73657)" x1="21.55" y1="2.844" x2="21.723" y2="40.853"/><linearGradient xlink:href="#a" id="c" gradientUnits="userSpaceOnUse" gradientTransform="translate(189.937 -381.44) scale(5.73657)" x1="21.55" y1="2.844" x2="21.723" y2="40.853"/></defs><path d="M231.004.063l-109.77 63.373 50.104 278.484s-29.325.163-43.028 3.258c-13.99 3.161-36.039 12.638-36.039 12.638l-48.5-249.66-12.767 7.371L31 346.465l199.996 115.473 114.459-66.08-52.566-270.63s24.415.416 42-3.425c17.35-3.79 40.209-13.588 40.209-13.588l44.062 245.092 11.836-6.834.004-230.938L231.004.063z" fill="#4872b3"/><path d="M190.396-361.906l58.23 51.857-56.99 164.827-62.144-35.175z" fill="url(#b)" transform="translate(-20.55 487.168)"/><path d="M43.772 108.154l77.462-44.723 50.104 278.488s-29.326.164-43.028 3.26c-13.991 3.16-36.038 12.638-36.038 12.638z" fill="#fff"/><path d="M313.41-361.929l58.23 51.857-56.989 164.828-62.145-35.176z" fill="url(#c)" transform="translate(-20.55 487.168)"/><path d="M169.871 125.228s24.415.415 42-3.425c17.35-3.79 40.21-13.588 40.21-13.588l42.02 233.704s-29.326.164-43.028 3.26c-13.992 3.16-36.039 12.638-36.039 12.638zm123.018 0s24.414.416 42-3.425c17.35-3.79 40.21-13.588 40.21-13.588l44.06 245.095-73.704 42.551z" fill="#fff"/></svg>